<svg width="25" height="24" viewBox="0 0 25 24" fill="none" xmlns="http://www.w3.org/2000/svg">
<path d="M21.7617 12C21.7617 10.7744 21.5198 9.56073 21.0508 8.42839C20.5817 7.29601 19.894 6.26642 19.0273 5.39974C18.1609 4.53338 17.132 3.84657 16 3.3776C14.8678 2.90862 13.6539 2.66673 12.4284 2.66667H11.0951V0H12.4284C14.004 6.47732e-05 15.5638 0.31114 17.0195 0.914062C18.4753 1.51705 19.7985 2.40021 20.9128 3.51432C22.027 4.62856 22.9113 5.95175 23.5143 7.40755C24.1174 8.86346 24.4284 10.4241 24.4284 12C24.4284 13.5759 24.1174 15.1365 23.5143 16.5924C22.9113 18.0483 22.027 19.3714 20.9128 20.4857C19.7985 21.5998 18.4753 22.483 17.0195 23.0859C15.5638 23.6889 14.004 23.9999 12.4284 24C10.8525 24 9.29184 23.689 7.83594 23.0859C6.38014 22.4829 5.05696 21.5999 3.94271 20.4857L3 19.543L4.88542 17.6562L5.82812 18.6003C6.69475 19.4668 7.72451 20.1534 8.85677 20.6224C9.98905 21.0913 11.2028 21.3333 12.4284 21.3333C13.6539 21.3333 14.8678 21.0914 16 20.6224C17.132 20.1534 18.1609 19.4666 19.0273 18.6003C19.894 17.7336 20.5817 16.704 21.0508 15.5716C21.5198 14.4393 21.7617 13.2256 21.7617 12Z" fill="url(#paint0_linear_2034_621)"/>
<defs>
<linearGradient id="paint0_linear_2034_621" x1="13.7142" y1="0" x2="13.7142" y2="24" gradientUnits="userSpaceOnUse">
<stop offset="0.182692" stop-color="#A023FF"/>
<stop offset="1" stop-color="#4BAEF8"/>
</linearGradient>
</defs>
</svg>
